<svg width="29" height="44" viewBox="0 0 29 44" fill="none" xmlns="http://www.w3.org/2000/svg">
<path d="M5.19997 19.928V23.988H10.652V26.5632H5.19997V30.8552H11.348V33.5H1.95197V17.2832H11.348V19.928H5.19997Z" fill="#F46524"/>
<path d="M20.8522 14.8176C20.8522 15.6837 20.6434 16.4957 20.2258 17.2536C19.8236 18.0115 19.1818 18.6224 18.3002 19.0864C17.434 19.5504 16.3359 19.7824 15.0058 19.7824H12.2914V26H9.04338V9.8064H15.0058C16.2586 9.8064 17.3258 10.0229 18.2074 10.456C19.089 10.8891 19.7463 11.4845 20.1794 12.2424C20.6279 13.0003 20.8522 13.8587 20.8522 14.8176ZM14.8666 17.1608C15.7636 17.1608 16.4287 16.9597 16.8618 16.5576C17.2948 16.14 17.5114 15.56 17.5114 14.8176C17.5114 13.24 16.6298 12.4512 14.8666 12.4512H12.2914V17.1608H14.8666Z" fill="#F46524"/>
<path d="M12.4953 17.3064V33.5H9.24728V17.3064H12.4953Z" fill="#F46524"/>
<path d="M11.4835 25.38C11.4835 23.7869 11.8392 22.364 12.5507 21.1112C13.2776 19.8429 14.2598 18.8608 15.4971 18.1648C16.7499 17.4533 18.1496 17.0976 19.6963 17.0976C21.5059 17.0976 23.0912 17.5616 24.4523 18.4896C25.8134 19.4176 26.7646 20.7013 27.3059 22.3408H23.5707C23.1995 21.5675 22.6736 20.9875 21.9931 20.6008C21.328 20.2141 20.5547 20.0208 19.6731 20.0208C18.7296 20.0208 17.8867 20.2451 17.1443 20.6936C16.4174 21.1267 15.8451 21.7453 15.4275 22.5496C15.0254 23.3539 14.8243 24.2973 14.8243 25.38C14.8243 26.4472 15.0254 27.3907 15.4275 28.2104C15.8451 29.0147 16.4174 29.6411 17.1443 30.0896C17.8867 30.5227 18.7296 30.7392 19.6731 30.7392C20.5547 30.7392 21.328 30.5459 21.9931 30.1592C22.6736 29.7571 23.1995 29.1693 23.5707 28.396H27.3059C26.7646 30.0509 25.8134 31.3424 24.4523 32.2704C23.1067 33.1829 21.5214 33.6392 19.6963 33.6392C18.1496 33.6392 16.7499 33.2912 15.4971 32.5952C14.2598 31.8837 13.2776 30.9016 12.5507 29.6488C11.8392 28.396 11.4835 26.9731 11.4835 25.38Z" fill="#F46524"/>
</svg>
